<mxfile host="app.diagrams.net" agent="Mozilla/5.0 (X11; Ubuntu; Linux x86_64; rv:139.0) Gecko/20100101 Firefox/139.0" version="27.0.2">
  <diagram name="Страница — 1" id="chyt1C5kyFe_TrTAxUXo">
    <mxGraphModel dx="1016" dy="586" grid="1" gridSize="10" guides="1" tooltips="1" connect="1" arrows="1" fold="1" page="1" pageScale="1" pageWidth="827" pageHeight="1169" math="0" shadow="0">
      <root>
        <mxCell id="0" />
        <mxCell id="1" parent="0" />
        <mxCell id="PZH9s9JdHnYyMdeiWttc-1" value="" style="rounded=0;whiteSpace=wrap;html=1;" vertex="1" parent="1">
          <mxGeometry x="160" y="320" width="560" height="320" as="geometry" />
        </mxCell>
        <mxCell id="PZH9s9JdHnYyMdeiWttc-3" value="Клиент" style="shape=umlActor;verticalLabelPosition=bottom;verticalAlign=top;html=1;outlineConnect=0;" vertex="1" parent="1">
          <mxGeometry x="425" y="110" width="30" height="60" as="geometry" />
        </mxCell>
        <mxCell id="PZH9s9JdHnYyMdeiWttc-4" value="Веб-приложение" style="rounded=0;whiteSpace=wrap;html=1;" vertex="1" parent="1">
          <mxGeometry x="380" y="230" width="120" height="60" as="geometry" />
        </mxCell>
        <mxCell id="PZH9s9JdHnYyMdeiWttc-18" value="" style="edgeStyle=orthogonalEdgeStyle;rounded=0;orthogonalLoop=1;jettySize=auto;html=1;" edge="1" parent="1" source="PZH9s9JdHnYyMdeiWttc-5" target="PZH9s9JdHnYyMdeiWttc-17">
          <mxGeometry relative="1" as="geometry" />
        </mxCell>
        <mxCell id="PZH9s9JdHnYyMdeiWttc-19" value="&lt;font style=&quot;font-size: 6px;&quot;&gt;Хранение данных о&lt;br&gt;пользователях, играх&lt;/font&gt;" style="edgeLabel;html=1;align=center;verticalAlign=middle;resizable=0;points=[];" vertex="1" connectable="0" parent="PZH9s9JdHnYyMdeiWttc-18">
          <mxGeometry x="-0.0745" y="-1" relative="1" as="geometry">
            <mxPoint as="offset" />
          </mxGeometry>
        </mxCell>
        <mxCell id="PZH9s9JdHnYyMdeiWttc-5" value="game-srv" style="rounded=0;whiteSpace=wrap;html=1;" vertex="1" parent="1">
          <mxGeometry x="190" y="350" width="120" height="60" as="geometry" />
        </mxCell>
        <mxCell id="PZH9s9JdHnYyMdeiWttc-6" value="Backend" style="text;html=1;align=center;verticalAlign=middle;whiteSpace=wrap;rounded=0;" vertex="1" parent="1">
          <mxGeometry x="170" y="600" width="60" height="30" as="geometry" />
        </mxCell>
        <mxCell id="PZH9s9JdHnYyMdeiWttc-7" value="" style="endArrow=classic;html=1;rounded=0;entryX=0.5;entryY=0;entryDx=0;entryDy=0;exitX=0.5;exitY=1;exitDx=0;exitDy=0;" edge="1" parent="1" source="PZH9s9JdHnYyMdeiWttc-4" target="PZH9s9JdHnYyMdeiWttc-5">
          <mxGeometry width="50" height="50" relative="1" as="geometry">
            <mxPoint x="370" y="450" as="sourcePoint" />
            <mxPoint x="420" y="400" as="targetPoint" />
          </mxGeometry>
        </mxCell>
        <mxCell id="PZH9s9JdHnYyMdeiWttc-8" value="&lt;div&gt;&lt;font style=&quot;font-size: 6px;&quot;&gt;CRUD операции над играми, пользователями&lt;/font&gt;&lt;/div&gt;" style="edgeLabel;html=1;align=center;verticalAlign=middle;resizable=0;points=[];" vertex="1" connectable="0" parent="PZH9s9JdHnYyMdeiWttc-7">
          <mxGeometry x="-0.1451" y="2" relative="1" as="geometry">
            <mxPoint x="-5" y="-8" as="offset" />
          </mxGeometry>
        </mxCell>
        <mxCell id="PZH9s9JdHnYyMdeiWttc-9" value="game-srv" style="rounded=0;whiteSpace=wrap;html=1;" vertex="1" parent="1">
          <mxGeometry x="580" y="350" width="120" height="60" as="geometry" />
        </mxCell>
        <mxCell id="PZH9s9JdHnYyMdeiWttc-10" value="" style="endArrow=classic;html=1;rounded=0;entryX=0.5;entryY=0;entryDx=0;entryDy=0;exitX=0.5;exitY=1;exitDx=0;exitDy=0;" edge="1" parent="1" source="PZH9s9JdHnYyMdeiWttc-4" target="PZH9s9JdHnYyMdeiWttc-9">
          <mxGeometry width="50" height="50" relative="1" as="geometry">
            <mxPoint x="370" y="450" as="sourcePoint" />
            <mxPoint x="420" y="400" as="targetPoint" />
          </mxGeometry>
        </mxCell>
        <mxCell id="PZH9s9JdHnYyMdeiWttc-12" value="&lt;font style=&quot;font-size: 6px;&quot;&gt;получение сообщений, игрового состояние через websocket&lt;br&gt;написание сообщений, операции на поле через http&lt;/font&gt;" style="edgeLabel;html=1;align=center;verticalAlign=middle;resizable=0;points=[];" vertex="1" connectable="0" parent="PZH9s9JdHnYyMdeiWttc-10">
          <mxGeometry x="-0.1436" y="1" relative="1" as="geometry">
            <mxPoint x="54" y="1" as="offset" />
          </mxGeometry>
        </mxCell>
        <mxCell id="PZH9s9JdHnYyMdeiWttc-13" value="Redis" style="rounded=0;whiteSpace=wrap;html=1;" vertex="1" parent="1">
          <mxGeometry x="380" y="430" width="120" height="60" as="geometry" />
        </mxCell>
        <mxCell id="PZH9s9JdHnYyMdeiWttc-14" value="" style="endArrow=classic;html=1;rounded=0;entryX=0;entryY=0.5;entryDx=0;entryDy=0;exitX=0.5;exitY=1;exitDx=0;exitDy=0;" edge="1" parent="1" source="PZH9s9JdHnYyMdeiWttc-5" target="PZH9s9JdHnYyMdeiWttc-13">
          <mxGeometry width="50" height="50" relative="1" as="geometry">
            <mxPoint x="225" y="500" as="sourcePoint" />
            <mxPoint x="275" y="450" as="targetPoint" />
          </mxGeometry>
        </mxCell>
        <mxCell id="PZH9s9JdHnYyMdeiWttc-15" value="&lt;font style=&quot;font-size: 6px;&quot;&gt;Создание ивентов по новым,&lt;br&gt;удалённым играм и т.п.&lt;/font&gt;" style="edgeLabel;html=1;align=center;verticalAlign=middle;resizable=0;points=[];" vertex="1" connectable="0" parent="PZH9s9JdHnYyMdeiWttc-14">
          <mxGeometry x="-0.1647" y="-1" relative="1" as="geometry">
            <mxPoint as="offset" />
          </mxGeometry>
        </mxCell>
        <mxCell id="PZH9s9JdHnYyMdeiWttc-17" value="PostgreSQL" style="rounded=0;whiteSpace=wrap;html=1;" vertex="1" parent="1">
          <mxGeometry x="190" y="500" width="120" height="60" as="geometry" />
        </mxCell>
        <mxCell id="PZH9s9JdHnYyMdeiWttc-20" value="" style="endArrow=classic;html=1;rounded=0;entryX=0.5;entryY=1;entryDx=0;entryDy=0;exitX=1;exitY=0.5;exitDx=0;exitDy=0;" edge="1" parent="1" source="PZH9s9JdHnYyMdeiWttc-13" target="PZH9s9JdHnYyMdeiWttc-9">
          <mxGeometry width="50" height="50" relative="1" as="geometry">
            <mxPoint x="370" y="450" as="sourcePoint" />
            <mxPoint x="420" y="400" as="targetPoint" />
          </mxGeometry>
        </mxCell>
        <mxCell id="PZH9s9JdHnYyMdeiWttc-21" value="&lt;font style=&quot;font-size: 6px;&quot;&gt;Получение ивентов из очереди redis,&lt;br&gt;отправка их по ws&lt;/font&gt;" style="edgeLabel;html=1;align=center;verticalAlign=middle;resizable=0;points=[];" vertex="1" connectable="0" parent="PZH9s9JdHnYyMdeiWttc-20">
          <mxGeometry x="-0.0773" relative="1" as="geometry">
            <mxPoint as="offset" />
          </mxGeometry>
        </mxCell>
      </root>
    </mxGraphModel>
  </diagram>
</mxfile>
